<svg aria-hidden="true" style="position: absolute; width: 0; height: 0; overflow: hidden;" version="1.1" xmlns="http://www.w3.org/2000/svg" xmlns:xlink="http://www.w3.org/1999/xlink">
<defs>
  <symbol id="icon-x" viewBox="0 0 32 32">
      <path stroke="#fbfbfb" stroke-linecap="round" stroke-linejoin="round" stroke-width="2.353" d="M24 8 8 24M8 8l16 16" style="stroke:var(--color1, #fbfbfb)"/>
    </symbol>
    <symbol id="icon-facebook" viewBox="0 0 32 32">
      <path d="M19.52 4.64h.96v3.6h-1.2c-.48 0-.96 0-1.2.24s-.24.48-.24 1.04v1.28h2.64v3.04h-2.64v13.2h-4.08V13.76H11.6v-3.04h2.16V9.68c0-1.76.24-3.04.72-3.6.72-1.04 2.16-1.52 4.32-1.52.24.08.48.08.72.08z" style="fill:var(--color1, #fbfbfb)"/>
    </symbol>
    <symbol id="icon-youtube" viewBox="0 0 32 32">
      <path d="M24.24 6c-1.36-.08-4.16-.16-8.4-.16h-.56c-4.08 0-6.8.08-8.16.24-1.84.16-3.12.64-3.84 1.28-.64.56-1.12 1.6-1.28 2.96-.08.88-.16 2.72-.16 5.52v.4c0 2.64.08 4.48.24 5.36.24 1.28.64 2.24 1.44 2.8.8.64 2.16 1.04 4.08 1.2 1.36.08 4.16.16 8.4.16h.56c4.08 0 6.8-.08 8.16-.24 1.84-.16 3.12-.64 3.84-1.28.64-.56 1.12-1.6 1.28-2.96.08-.88.16-2.72.16-5.52v-.4c0-2.64-.08-4.48-.24-5.36-.24-1.28-.64-2.24-1.44-2.8-.8-.64-2.16-1.04-4.08-1.2zm-3.12 9.84-8.8 5.28V10.56l8.8 5.28z" opacity=".8" style="fill:var(--color1, #fbfbfb)"/>
    </symbol>
    <symbol id="icon-instagram" viewBox="0 0 32 32">
      <path d="M28.718 10.756a9.264 9.264 0 0 0-.596-3.145 6.547 6.547 0 0 0-3.743-3.737 9.42 9.42 0 0 0-3.108-.596c-1.367-.061-1.801-.078-5.273-.078s-3.916 0-5.274.078a9.418 9.418 0 0 0-3.106.596 6.541 6.541 0 0 0-3.743 3.737 9.288 9.288 0 0 0-.596 3.101c-.061 1.367-.08 1.8-.08 5.265s0 3.909.08 5.265a9.34 9.34 0 0 0 .596 3.104 6.548 6.548 0 0 0 3.744 3.735 9.37 9.37 0 0 0 3.106.639c1.369.061 1.803.079 5.274.079s3.917 0 5.274-.079a9.357 9.357 0 0 0 3.108-.595 6.555 6.555 0 0 0 3.743-3.737 9.346 9.346 0 0 0 .596-3.104c.061-1.365.079-1.798.079-5.265-.003-3.466-.003-3.906-.082-5.264zM15.99 22.531c-3.631 0-6.572-2.936-6.572-6.561s2.941-6.561 6.572-6.561c3.628 0 6.572 2.936 6.572 6.561s-2.944 6.561-6.572 6.561zm6.834-11.835a1.53 1.53 0 1 1 0-3.06 1.53 1.53 0 1 1 0 3.06z" opacity=".8" style="fill:var(--color1, #fbfbfb)"/>
      <path d="M15.992 19.976a4.004 4.004 0 1 0 0-8.009 4.004 4.004 0 0 0 0 8.009z" opacity=".8" style="fill:var(--color1, #fbfbfb)"/>
    </symbol>
    <symbol id="icon-menu" viewBox="0 0 64 32">
      <path stroke="#000000" stroke-linecap="round" stroke-linejoin="round" stroke-width="5.714" d="M2.857 4.667h58.286M2.857 27.333h58.286"/>
    </symbol>
    <symbol id="icon-footer-faceboo" viewBox="0 0 32 32">
    <path stroke-width="0.8889" stroke-miterlimit="4" stroke-linecap="butt" stroke-linejoin="miter" d="M8.889 0.444h14.222c4.664 0 8.444 3.781 8.444 8.444v14.222c0 4.664-3.781 8.444-8.444 8.444h-14.222c-4.664 0-8.444-3.781-8.444-8.444v-14.222c0-4.664 3.781-8.444 8.444-8.444z"></path>
    <path d="M17.956 9.689c0.133 0 0.267 0 0.533 0v2c-0.133 0-0.4 0-0.667 0s-0.533 0-0.667 0.133c-0.133 0.133-0.133 0.267-0.133 0.578 0 0.267 0 0.444 0 0.711h1.467v1.689h-1.467v7.333h-2.267v-7.378h-1.2v-1.689h1.2v-0.578c0-0.978 0.133-1.689 0.4-2 0.4-0.578 1.2-0.844 2.4-0.844 0.133 0.044 0.267 0.044 0.4 0.044z"></path>
    </symbol>
    <symbol id="icon-footer-facebook" viewBox="0 0 14 32">
    <path d="M11.383 1.394c0.309 0 0.617 0 1.234 0v4.629c-0.309 0-0.926 0-1.543 0s-1.234 0-1.543 0.309c-0.309 0.309-0.309 0.617-0.309 1.337 0 0.617 0 1.029 0 1.646h3.394v3.909h-3.394v16.971h-5.246v-17.074h-2.777v-3.909h2.777v-1.337c0-2.263 0.309-3.909 0.926-4.629 0.926-1.337 2.777-1.954 5.554-1.954 0.309 0.103 0.617 0.103 0.926 0.103z"></path>
    </symbol>
    <symbol id="icon-footer-insta" viewBox="0 0 32 32">
    <path d="M30.307 10.1c-0.018-1.209-0.242-2.408-0.67-3.538-0.75-1.93-2.277-3.457-4.211-4.204-1.118-0.42-2.3-0.645-3.496-0.671-1.538-0.069-2.026-0.088-5.932-0.088s-4.406 0-5.933 0.088c-1.195 0.026-2.377 0.251-3.494 0.671-1.934 0.747-3.462 2.274-4.211 4.204-0.421 1.116-0.648 2.296-0.67 3.489-0.069 1.538-0.090 2.025-0.090 5.923s0 4.397 0.090 5.924c0.024 1.194 0.25 2.373 0.67 3.492 0.75 1.929 2.277 3.455 4.213 4.202 1.113 0.434 2.295 0.68 3.494 0.718 1.54 0.069 2.028 0.089 5.933 0.089s4.406 0 5.933-0.089c1.195-0.024 2.377-0.249 3.496-0.669 1.933-0.749 3.461-2.275 4.211-4.204 0.421-1.118 0.646-2.296 0.67-3.492 0.069-1.536 0.089-2.023 0.089-5.923-0.003-3.899-0.003-4.394-0.093-5.922zM15.989 23.347c-4.085 0-7.394-3.304-7.394-7.381s3.309-7.381 7.394-7.381c4.081 0 7.393 3.303 7.393 7.381s-3.312 7.381-7.393 7.381zM23.677 10.033c-0.955 0-1.724-0.77-1.724-1.721s0.769-1.721 1.724-1.721c0.952 0 1.723 0.77 1.723 1.721s-0.771 1.721-1.723 1.721z"></path>
    </symbol>
    <symbol id="icon-footer-youtoob" viewBox="0 0 43 32">
    <path d="M33.693 1c-2.040-0.12-6.24-0.24-12.6-0.24h-0.84c-6.12 0-10.2 0.12-12.24 0.36-2.76 0.24-4.68 0.96-5.76 1.92-0.96 0.84-1.68 2.4-1.92 4.44-0.12 1.32-0.24 4.080-0.24 8.28v0.6c0 3.96 0.12 6.72 0.36 8.040 0.36 1.92 0.96 3.36 2.16 4.2 1.2 0.96 3.24 1.56 6.12 1.8 2.040 0.12 6.24 0.24 12.6 0.24h0.84c6.12 0 10.2-0.12 12.24-0.36 2.76-0.24 4.68-0.96 5.76-1.92 0.96-0.84 1.68-2.4 1.92-4.44 0.12-1.32 0.24-4.080 0.24-8.28v-0.6c0-3.96-0.12-6.72-0.36-8.040-0.36-1.92-0.96-3.36-2.16-4.2-1.2-0.96-3.24-1.56-6.12-1.8zM29.013 15.76l-13.2 7.92v-15.84l13.2 7.92z"></path>
    </symbol>
</defs>
</svg>
